<svg xmlns="http://www.w3.org/2000/svg" xmlns:xlink="http://www.w3.org/1999/xlink" width="500" zoomAndPan="magnify" viewBox="0 0 375 74.999997" height="100" preserveAspectRatio="xMidYMid meet" version="1.0"><defs><g><g id="id1"/></g><clipPath id="id2"><path d="M 2.878906 16 L 55 16 L 55 68.261719 L 2.878906 68.261719 Z M 2.878906 16 " clip-rule="nonzero"/></clipPath><clipPath id="id3"><path d="M 12 6.539062 L 64.601562 6.539062 L 64.601562 59 L 12 59 Z M 12 6.539062 " clip-rule="nonzero"/></clipPath></defs><g fill="rgb(100%, 100%, 100%)" fill-opacity="1"><g transform="translate(92.213943, 52.873747)"><g><path d="M 28.9375 -10.65625 L 28.28125 -0.46875 L 2.5625 -0.46875 L 2.5625 -1.796875 C 4.125 -1.898438 5.269531 -2.09375 6 -2.375 C 6.945312 -2.8125 7.421875 -3.859375 7.421875 -5.515625 L 7.421875 -28.875 C 7.421875 -30.46875 6.976562 -31.5 6.09375 -31.96875 C 5.414062 -32.320312 4.175781 -32.578125 2.375 -32.734375 L 2.375 -34.0625 L 15.65625 -34.0625 L 15.65625 -32.734375 C 13.851562 -32.578125 12.613281 -32.320312 11.9375 -31.96875 C 11.144531 -31.539062 10.75 -30.507812 10.75 -28.875 L 10.75 -5.5625 C 10.75 -4.164062 11.003906 -3.257812 11.515625 -2.84375 C 12.148438 -2.3125 13.226562 -2.046875 14.75 -2.046875 L 17.65625 -2.046875 C 21.613281 -2.046875 24.21875 -2.789062 25.46875 -4.28125 C 26.570312 -5.65625 27.285156 -7.78125 27.609375 -10.65625 Z M 28.9375 -10.65625 "/></g></g></g><g fill="rgb(100%, 100%, 100%)" fill-opacity="1"><g transform="translate(132.087335, 52.873747)"><g><path d="M 43.21875 -0.46875 L 30.3125 -0.46875 L 30.3125 -1.796875 C 31.988281 -1.898438 33.132812 -2.09375 33.75 -2.375 C 34.664062 -2.757812 35.125 -3.835938 35.125 -5.609375 L 35.125 -31.734375 L 34.984375 -31.734375 L 22.953125 -0.46875 L 21.3125 -0.46875 L 9.328125 -31.6875 L 9.140625 -31.6875 L 9.140625 -5.5625 C 9.140625 -3.925781 9.550781 -2.894531 10.375 -2.46875 C 11.082031 -2.113281 12.226562 -1.890625 13.8125 -1.796875 L 13.8125 -0.46875 L 2.046875 -0.46875 L 2.046875 -1.796875 C 3.597656 -1.898438 4.726562 -2.09375 5.4375 -2.375 C 6.351562 -2.8125 6.8125 -3.875 6.8125 -5.5625 L 6.8125 -28.828125 C 6.8125 -30.546875 6.398438 -31.625 5.578125 -32.0625 C 5.023438 -32.351562 3.785156 -32.578125 1.859375 -32.734375 L 1.859375 -34.0625 L 11.8125 -34.0625 L 22.78125 -5.609375 L 33.640625 -34.0625 L 43.21875 -34.0625 L 43.21875 -32.734375 C 41.6875 -32.640625 40.539062 -32.414062 39.78125 -32.0625 C 38.832031 -31.625 38.359375 -30.5625 38.359375 -28.875 L 38.359375 -5.609375 C 38.359375 -3.941406 38.769531 -2.894531 39.59375 -2.46875 C 40.238281 -2.125 41.445312 -1.898438 43.21875 -1.796875 Z M 43.21875 -0.46875 "/></g></g></g><g fill="rgb(100%, 100%, 100%)" fill-opacity="1"><g transform="translate(188.499005, 52.873747)"><g><path d="M 33.234375 -11.046875 C 32.234375 -7.242188 30.488281 -4.335938 28 -2.328125 C 25.507812 -0.296875 22.539062 0.71875 19.09375 0.71875 C 14.582031 0.71875 10.851562 -0.753906 7.90625 -3.703125 C 4.539062 -7.015625 2.859375 -11.476562 2.859375 -17.09375 C 2.859375 -22.695312 4.570312 -27.234375 8 -30.703125 C 11.007812 -33.722656 14.722656 -35.234375 19.140625 -35.234375 C 22.628906 -35.234375 25.691406 -34.304688 28.328125 -32.453125 C 28.984375 -32.003906 29.4375 -31.78125 29.6875 -31.78125 C 30.164062 -31.78125 30.4375 -32.429688 30.5 -33.734375 L 31.96875 -33.734375 L 31.96875 -24.140625 L 30.546875 -24.140625 C 30.097656 -26.421875 29.175781 -28.363281 27.78125 -29.96875 C 25.632812 -32.332031 22.84375 -33.515625 19.40625 -33.515625 C 14.78125 -33.515625 11.34375 -31.515625 9.09375 -27.515625 C 7.507812 -24.628906 6.71875 -21.28125 6.71875 -17.46875 C 6.71875 -12.90625 7.90625 -9.175781 10.28125 -6.28125 C 12.726562 -3.257812 15.875 -1.75 19.71875 -1.75 C 25.613281 -1.75 29.539062 -5.039062 31.5 -11.625 Z M 33.234375 -11.046875 "/></g></g></g><g fill="rgb(100%, 100%, 100%)" fill-opacity="1"><g transform="translate(234.234058, 52.873747)"><g><path d="M 19.1875 -35.234375 C 23.613281 -35.234375 27.335938 -33.722656 30.359375 -30.703125 C 33.785156 -27.234375 35.5 -22.804688 35.5 -17.421875 C 35.5 -11.734375 33.769531 -7.160156 30.3125 -3.703125 C 27.320312 -0.722656 23.613281 0.765625 19.1875 0.765625 C 14.78125 0.765625 11.066406 -0.738281 8.046875 -3.75 C 4.585938 -7.207031 2.859375 -11.734375 2.859375 -17.328125 C 2.859375 -22.773438 4.570312 -27.234375 8 -30.703125 C 11.019531 -33.722656 14.75 -35.234375 19.1875 -35.234375 Z M 19.1875 -33.5625 C 15.3125 -33.5625 12.234375 -31.972656 9.953125 -28.796875 C 7.859375 -25.898438 6.8125 -22.109375 6.8125 -17.421875 C 6.8125 -13.265625 7.617188 -9.785156 9.234375 -6.984375 C 11.460938 -3.035156 14.78125 -1.0625 19.1875 -1.0625 C 23 -1.0625 26.054688 -2.640625 28.359375 -5.796875 C 30.484375 -8.679688 31.546875 -12.503906 31.546875 -17.265625 C 31.546875 -22.347656 30.351562 -26.367188 27.96875 -29.328125 C 25.71875 -32.148438 22.789062 -33.5625 19.1875 -33.5625 Z M 19.1875 -33.5625 "/></g></g></g><g fill="rgb(100%, 100%, 100%)" fill-opacity="1"><g transform="translate(283.341911, 52.873747)"><g><path d="M 2.390625 -34.0625 L 16.90625 -34.0625 C 21.84375 -34.0625 25.753906 -33 28.640625 -30.875 C 32.734375 -27.863281 34.78125 -23.347656 34.78125 -17.328125 C 34.78125 -9.773438 31.78125 -4.664062 25.78125 -2 C 23.445312 -0.976562 20.410156 -0.46875 16.671875 -0.46875 L 2.390625 -0.46875 L 2.390625 -1.796875 C 3.960938 -1.898438 5.101562 -2.09375 5.8125 -2.375 C 6.769531 -2.8125 7.25 -3.859375 7.25 -5.515625 L 7.25 -28.921875 C 7.25 -30.429688 6.945312 -31.398438 6.34375 -31.828125 C 5.757812 -32.273438 4.441406 -32.578125 2.390625 -32.734375 Z M 16.546875 -32.546875 L 14.8125 -32.546875 C 13.976562 -32.546875 13.21875 -32.457031 12.53125 -32.28125 C 11.226562 -31.957031 10.578125 -30.835938 10.578125 -28.921875 L 10.578125 -5.5625 C 10.578125 -4.019531 11.035156 -3.035156 11.953125 -2.609375 C 12.585938 -2.296875 13.539062 -2.140625 14.8125 -2.140625 L 16.546875 -2.140625 C 20.546875 -2.140625 23.515625 -2.820312 25.453125 -4.1875 C 29.097656 -6.695312 30.921875 -11.15625 30.921875 -17.5625 C 30.921875 -27.550781 26.128906 -32.546875 16.546875 -32.546875 Z M 16.546875 -32.546875 "/></g></g></g><g fill="rgb(100%, 100%, 100%)" fill-opacity="1"><g transform="translate(331.798468, 52.873747)"><g><path d="M 30.40625 -10.765625 L 29.703125 -0.46875 L 2.390625 -0.46875 L 2.390625 -1.796875 C 4.148438 -1.953125 5.316406 -2.160156 5.890625 -2.421875 C 6.796875 -2.804688 7.25 -3.835938 7.25 -5.515625 L 7.25 -28.96875 C 7.25 -30.445312 6.945312 -31.398438 6.34375 -31.828125 C 5.757812 -32.273438 4.441406 -32.578125 2.390625 -32.734375 L 2.390625 -34.0625 L 29.125 -34.0625 L 29.703125 -24.59375 L 28.265625 -24.59375 C 28.078125 -27.320312 27.476562 -29.289062 26.46875 -30.5 C 25.320312 -31.863281 22.796875 -32.546875 18.890625 -32.546875 L 14.671875 -32.546875 C 13.359375 -32.546875 12.328125 -32.367188 11.578125 -32.015625 C 10.847656 -31.617188 10.484375 -30.601562 10.484375 -28.96875 L 10.484375 -18.671875 L 15.53125 -18.671875 C 17.445312 -18.671875 18.738281 -19.097656 19.40625 -19.953125 C 20.019531 -20.773438 20.398438 -21.988281 20.546875 -23.59375 L 21.9375 -23.59375 L 21.9375 -11.953125 L 20.546875 -11.953125 C 20.398438 -13.523438 20.082031 -14.679688 19.59375 -15.421875 C 18.925781 -16.472656 17.570312 -17 15.53125 -17 L 10.484375 -17 L 10.484375 -5.609375 C 10.484375 -4.117188 10.800781 -3.148438 11.4375 -2.703125 C 12.132812 -2.265625 13.210938 -2.046875 14.671875 -2.046875 L 18.890625 -2.046875 C 22.640625 -2.046875 25.144531 -2.597656 26.40625 -3.703125 C 27.894531 -4.984375 28.753906 -7.335938 28.984375 -10.765625 Z M 30.40625 -10.765625 "/></g></g></g><g clip-path="url(#id2)"><path fill="rgb(100%, 100%, 100%)" d="M 54.914062 68.894531 L 2.878906 68.894531 L 2.878906 16.488281 L 54.914062 16.488281 Z M 3.707031 68.058594 L 54.082031 68.058594 L 54.082031 17.324219 L 3.707031 17.324219 Z M 3.707031 68.058594 " fill-opacity="1" fill-rule="nonzero"/></g><path fill="rgb(100%, 100%, 100%)" d="M 59.617188 63.597656 L 7.582031 63.597656 L 7.582031 11.191406 L 59.617188 11.191406 Z M 8.414062 62.761719 L 58.789062 62.761719 L 58.789062 12.03125 L 8.414062 12.03125 Z M 8.414062 62.761719 " fill-opacity="1" fill-rule="nonzero"/><g clip-path="url(#id3)"><path fill="rgb(100%, 100%, 100%)" d="M 64.601562 58.746094 L 12.566406 58.746094 L 12.566406 6.34375 L 64.601562 6.34375 Z M 13.394531 57.910156 L 63.769531 57.910156 L 63.769531 7.179688 L 13.394531 7.179688 Z M 13.394531 57.910156 " fill-opacity="1" fill-rule="nonzero"/></g><path fill="rgb(100%, 100%, 100%)" d="M 21.386719 32.019531 L 39.277344 32.019531 L 39.277344 49.910156 L 21.386719 49.910156 Z M 21.386719 32.019531 " fill-opacity="1" fill-rule="nonzero"/></svg>